HIERARCHY
ROOT Hips
{
	OFFSET 0.000000 89.005402 0.000000
	CHANNELS 6 Xposition Yposition Zposition Xrotation Yrotation Zrotation
	JOINT Spine
	{
		OFFSET 0.116900 10.681000 0.373400
		CHANNELS 3 Xrotation Yrotation Zrotation
		JOINT Spine1
		{
			OFFSET 0.000000 13.840401 0.053500
			CHANNELS 3 Xrotation Yrotation Zrotation
			JOINT Spine2
			{
				OFFSET 0.000000 14.712700 -0.366200
				CHANNELS 3 Xrotation Yrotation Zrotation
				JOINT Neck
				{
					OFFSET 0.000000 35.415497 -3.314200
					CHANNELS 3 Xrotation Yrotation Zrotation
					JOINT Head
					{
						OFFSET 0.000000 16.899200 1.218300
						CHANNELS 3 Xrotation Yrotation Zrotation
						JOINT HeadTop_End
						{
							OFFSET 0.000000 22.206207 2.192500
							CHANNELS 3 Xrotation Yrotation Zrotation
							End Site
							{
								OFFSET 0.000000 22.314178 0.000000
							}
						}
					}
				}
				JOINT LeftShoulder
				{
					OFFSET 12.896400 26.716293 -4.548400
					CHANNELS 3 Xrotation Yrotation Zrotation
					JOINT LeftArm
					{
						OFFSET 19.027000 -4.857010 -1.718400
						CHANNELS 3 Xrotation Yrotation Zrotation
						JOINT LeftForeArm
						{
							OFFSET 24.179897 0.000000 0.000000
							CHANNELS 3 Xrotation Yrotation Zrotation
							JOINT LeftHand
							{
								OFFSET 27.156403 0.000000 0.000000
								CHANNELS 3 Xrotation Yrotation Zrotation
								JOINT LeftHandIndex1
								{
									OFFSET 16.441200 0.000000 0.000000
									CHANNELS 3 Xrotation Yrotation Zrotation
									JOINT LeftHandIndex2
									{
										OFFSET 4.821899 0.000000 0.000000
										CHANNELS 3 Xrotation Yrotation Zrotation
										JOINT LeftHandIndex3
										{
											OFFSET 6.386497 0.000000 0.000000
											CHANNELS 3 Xrotation Yrotation Zrotation
											JOINT LeftHandIndex4
											{
												OFFSET 5.188988 0.000000 0.000000
												CHANNELS 3 Xrotation Yrotation Zrotation
												End Site
												{
													OFFSET -0.178703 5.185913 0.000177
												}
											}
										}
									}
								}
								JOINT LeftHandThumb1
								{
									OFFSET 6.534897 -5.032593 5.900300
									CHANNELS 3 Xrotation Yrotation Zrotation
									JOINT LeftHandThumb2
									{
										OFFSET 3.818176 -2.204422 2.204423
										CHANNELS 3 Xrotation Yrotation Zrotation
										JOINT LeftHandThumb3
										{
											OFFSET 3.252098 -1.877594 1.877601
											CHANNELS 3 Xrotation Yrotation Zrotation
											JOINT LeftHandThumb4
											{
												OFFSET 5.251778 -3.032120 3.032117
												CHANNELS 3 Xrotation Yrotation Zrotation
												End Site
												{
													OFFSET 0.000023 6.780014 0.000000
												}
											}
										}
									}
								}
							}
						}
					}
				}
				JOINT RightShoulder
				{
					OFFSET -12.896300 26.716293 -4.548400
					CHANNELS 3 Xrotation Yrotation Zrotation
					JOINT RightArm
					{
						OFFSET -19.027000 -4.857010 -1.718400
						CHANNELS 3 Xrotation Yrotation Zrotation
						JOINT RightForeArm
						{
							OFFSET -24.179897 0.000000 0.000000
							CHANNELS 3 Xrotation Yrotation Zrotation
							JOINT RightHand
							{
								OFFSET -27.156403 0.000000 0.000000
								CHANNELS 3 Xrotation Yrotation Zrotation
								JOINT RightHandThumb1
								{
									OFFSET -6.591202 -4.852203 5.988100
									CHANNELS 3 Xrotation Yrotation Zrotation
									JOINT RightHandThumb2
									{
										OFFSET -3.818176 -2.204422 2.204423
										CHANNELS 3 Xrotation Yrotation Zrotation
										JOINT RightHandThumb3
										{
											OFFSET -3.252098 -1.877594 1.877601
											CHANNELS 3 Xrotation Yrotation Zrotation
											JOINT RightHandThumb4
											{
												OFFSET -5.251778 -3.032120 3.032117
												CHANNELS 3 Xrotation Yrotation Zrotation
												End Site
												{
													OFFSET -0.000023 6.780014 0.000000
												}
											}
										}
									}
								}
								JOINT RightHandIndex1
								{
									OFFSET -16.029404 0.000000 0.000000
									CHANNELS 3 Xrotation Yrotation Zrotation
									JOINT RightHandIndex2
									{
										OFFSET -5.213303 0.000000 0.000000
										CHANNELS 3 Xrotation Yrotation Zrotation
										JOINT RightHandIndex3
										{
											OFFSET -6.386528 0.000000 0.000000
											CHANNELS 3 Xrotation Yrotation Zrotation
											JOINT RightHandIndex4
											{
												OFFSET -5.189026 0.000000 0.000000
												CHANNELS 3 Xrotation Yrotation Zrotation
												End Site
												{
													OFFSET 0.236702 5.183624 0.001972
												}
											}
										}
									}
								}
							}
						}
					}
				}
			}
		}
	}
	JOINT LeftUpLeg
	{
		OFFSET 14.073000 -7.904099 -1.463000
		CHANNELS 3 Xrotation Yrotation Zrotation
		JOINT LeftLeg
		{
			OFFSET -0.109806 -34.073280 4.093200
			CHANNELS 3 Xrotation Yrotation Zrotation
			JOINT LeftFoot
			{
				OFFSET 0.109806 -29.899420 -6.319000
				CHANNELS 3 Xrotation Yrotation Zrotation
				JOINT LeftToeBase
				{
					OFFSET 1.551100 -14.988700 20.535801
					CHANNELS 3 Xrotation Yrotation Zrotation
					JOINT LeftToe_End
					{
						OFFSET 0.221200 0.570800 13.248301
						CHANNELS 3 Xrotation Yrotation Zrotation
						End Site
						{
							OFFSET 0.000000 13.262435 0.000000
						}
					}
				}
			}
		}
	}
	JOINT RightUpLeg
	{
		OFFSET -13.839300 -7.904099 -1.463000
		CHANNELS 3 Xrotation Yrotation Zrotation
		JOINT RightLeg
		{
			OFFSET 0.109694 -34.073219 4.093300
			CHANNELS 3 Xrotation Yrotation Zrotation
			JOINT RightFoot
			{
				OFFSET -0.109694 -29.899384 -6.319200
				CHANNELS 3 Xrotation Yrotation Zrotation
				JOINT RightToeBase
				{
					OFFSET -1.551100 -14.988700 20.535801
					CHANNELS 3 Xrotation Yrotation Zrotation
					JOINT RightToe_End
					{
						OFFSET -0.221200 0.570900 13.248299
						CHANNELS 3 Xrotation Yrotation Zrotation
						End Site
						{
							OFFSET 0.000000 13.262440 0.000000
						}
					}
				}
			}
		}
	}
}
MOTION
Frames: 8
Frame Time: 0.033333
-0.727448 85.283096 1.075571 3.571554 -2.682618 -7.097783 4.625384 1.667644 1.053573 2.493923 0.692302 0.369772 2.472813 0.734513 0.380477 6.508252 0.611069 -2.514071 -18.768921 3.723671 0.970344 -0.000000 -0.000000 0.000000 0.646939 -17.508095 -15.097520 -0.316553 -18.541558 -60.311219 0.000004 -1.314410 0.000006 -32.922389 -3.039738 2.371136 0.387726 -0.669785 -10.100724 0.263334 1.738336 -17.226772 0.055555 0.805762 -7.888307 -0.000000 0.000000 0.000001 -2.663393 2.208588 6.081361 14.231409 22.576323 12.932070 -13.682230 2.301864 10.928083 0.000001 0.000001 0.000000 1.840451 19.329751 11.482789 9.485489 28.260773 56.773485 -0.000013 9.622074 0.000001 -22.705992 1.736740 3.598093 -1.903905 -0.561029 1.272605 12.212712 -28.868850 -16.285229 -15.905892 -2.846604 -12.405591 0.000002 -0.000001 0.000001 0.622952 -0.886419 8.973924 0.183365 -1.295254 16.114400 0.032460 -0.549493 6.761150 -0.000001 0.000001 -0.000001 -29.130904 10.725173 18.432124 29.748383 -1.624720 4.338920 -4.776529 1.123279 -9.322932 -4.224595 -0.000004 0.000002 -0.000000 0.000001 0.000000 -7.335717 -9.079542 8.362372 14.969456 -9.783493 -3.878525 -8.824965 -7.153232 3.947951 -6.993184 0.000000 0.000001 -0.000000 -0.000001 -0.000000 
-0.745991 85.380684 1.118853 3.121663 -2.755543 -6.862416 4.545122 1.685585 1.117405 2.404887 0.707926 0.429754 2.383539 0.748365 0.440572 6.605680 0.581377 -2.379426 -17.944826 3.520629 0.556536 0.000000 0.000000 -0.000000 0.654637 -17.442206 -15.049222 -0.131965 -17.820908 -60.424880 -0.000009 -0.866422 -0.000005 -32.559498 -2.800409 1.272221 0.418960 -0.675297 -10.035576 0.264331 1.741546 -17.259617 0.056016 0.809082 -7.920993 -0.000000 -0.000000 -0.000001 -1.928206 2.348304 5.513642 14.263578 22.295500 13.234158 -13.794186 2.408927 10.973379 0.000000 -0.000000 0.000002 1.824701 19.203340 11.545529 10.487551 28.475535 56.014600 -0.000000 9.568204 0.000007 -22.610810 1.386452 3.874768 -1.947552 -0.181215 0.243904 12.009329 -28.469782 -16.347966 -15.865397 -2.953707 -12.450439 -0.000001 -0.000000 0.000000 0.604764 -0.746462 8.399176 0.182839 -1.293449 16.091349 0.032243 -0.547634 6.738117 -0.000001 0.000001 -0.000000 -28.133923 10.974768 18.120121 29.084250 -1.489211 4.374615 -4.708735 1.126021 -9.393634 -4.225050 0.000001 -0.000003 0.000000 0.000000 -0.000000 -6.723540 -9.148198 8.053598 14.754365 -9.785763 -3.799542 -8.837653 -6.875102 3.938970 -6.990429 0.000001 -0.000000 -0.000001 -0.000001 0.000000 
-0.754772 85.480316 1.167995 2.626204 -2.888830 -6.591886 4.455867 1.693590 1.186198 2.304057 0.714730 0.494039 2.282481 0.754190 0.505003 6.709447 0.556959 -2.273959 -16.958380 3.420207 0.050793 0.000000 0.000000 0.000000 0.667803 -17.355229 -14.962774 0.129921 -17.109158 -60.606625 -0.000002 -0.531533 -0.000028 -32.312078 -2.571830 0.153450 0.423449 -0.679896 -9.992317 0.264726 1.742814 -17.272568 0.056200 0.810395 -7.933937 0.000000 0.000000 0.000000 -1.466859 2.370778 5.095567 14.337539 22.094438 13.271075 -13.811832 2.414955 10.999144 -0.000000 -0.000002 0.000000 1.778289 19.160258 11.767772 11.643745 28.718193 55.111929 -0.000014 9.542790 -0.000012 -22.566347 1.069428 4.216251 -1.980966 0.184959 -0.711012 11.853452 -28.161816 -16.395446 -15.822178 -3.035353 -12.485728 0.000001 0.000002 0.000000 0.594314 -0.638841 7.923286 0.182777 -1.293220 16.088266 0.032206 -0.547371 6.735043 -0.000002 -0.000002 0.000002 -26.981539 11.241769 17.749927 28.321999 -1.284240 4.410745 -4.680326 1.136496 -9.476625 -4.246660 -0.000006 -0.000000 -0.000000 0.000000 0.000000 -6.047042 -9.223216 7.694765 14.497461 -9.786381 -3.718228 -8.878618 -6.515773 3.928194 -6.980622 -0.000001 0.000001 -0.000000 0.000001 0.000000 
-0.755256 85.569656 1.227337 2.091183 -3.083363 -6.279196 4.353734 1.697185 1.251858 2.189245 0.712756 0.557850 2.167473 0.749046 0.568900 6.823574 0.536403 -2.185594 -15.739715 3.406303 -0.511710 -0.000000 0.000000 -0.000001 0.688883 -17.245210 -14.819871 0.496764 -16.473706 -60.933777 0.000001 -0.322875 -0.000009 -32.214054 -2.426732 -0.924467 0.408070 -0.684134 -9.946665 0.264619 1.742474 -17.269128 0.056151 0.810049 -7.930533 -0.000000 -0.000000 0.000001 -1.242499 2.300998 4.812306 14.436868 21.947966 13.130017 -13.772598 2.355385 11.021490 0.000001 -0.000001 -0.000001 1.722815 19.057059 12.030412 12.749397 29.017878 54.336136 -0.000011 9.515837 0.000010 -22.479575 0.766097 4.573331 -1.986670 0.311728 -1.088459 11.796836 -28.049118 -16.411869 -15.807739 -3.064460 -12.500414 -0.000001 0.000002 0.000002 0.593310 -0.595886 7.695786 0.183454 -1.295573 16.118531 0.032496 -0.549821 6.765277 0.000003 -0.000000 0.000001 -25.695733 11.522784 17.305753 27.512878 -0.992018 4.440525 -4.752233 1.146939 -9.498233 -4.287901 0.000000 0.000001 0.000000 0.000000 -0.000000 -5.341455 -9.305728 7.284149 14.266007 -9.778001 -3.658388 -8.987230 -6.103466 3.941770 -6.969364 0.000004 -0.000001 -0.000000 -0.000001 -0.000000 
-0.749218 85.645592 1.301276 1.520553 -3.326433 -5.932025 4.241828 1.698701 1.310984 2.064242 0.700587 0.617641 2.042302 0.735061 0.628682 6.948928 0.518229 -2.099528 -14.396085 3.456567 -1.067909 -0.000000 0.000000 0.000000 0.713576 -17.125250 -14.649012 0.990998 -15.976702 -61.362085 -0.000017 -0.230076 0.000021 -32.275069 -2.364755 -1.957678 0.379000 -0.691799 -9.897746 0.264379 1.741699 -17.261152 0.056039 0.809253 -7.922682 0.000000 -0.000000 0.000002 -1.182103 2.203685 4.652447 14.542822 21.816970 12.938286 -13.727277 2.281123 11.057602 0.000002 0.000001 0.000004 1.669400 18.777513 12.272159 13.603506 29.335560 53.909949 -0.000008 9.436349 0.000012 -22.393443 0.512102 4.918295 -1.963721 0.095544 -0.623195 11.850252 -28.155841 -16.396267 -15.826670 -3.027480 -12.482295 0.000003 -0.000000 -0.000001 0.598094 -0.633364 7.804738 0.184436 -1.298932 16.161389 0.032911 -0.553283 6.808129 0.000001 0.000001 0.000003 -24.328319 11.803878 16.820729 26.710216 -0.640500 4.453188 -4.863546 1.161043 -9.521131 -4.336278 -0.000006 0.000001 0.000000 -0.000000 0.000000 -4.632475 -9.414739 6.817894 14.119149 -9.761855 -3.611873 -9.174491 -5.650834 3.985919 -6.972880 -0.000002 0.000002 -0.000000 -0.000000 -0.000000 
-0.738203 85.725594 1.388363 0.932017 -3.601647 -5.579542 4.127499 1.698508 1.370843 1.936126 0.686378 0.679023 1.914039 0.719301 0.689981 7.083313 0.505032 -2.006154 -13.131859 3.563488 -1.555729 0.000000 -0.000000 0.000000 0.734609 -17.008440 -14.501916 1.563663 -15.633987 -61.849535 -0.000011 -0.213673 -0.000011 -32.454948 -2.353232 -2.920085 0.348431 -0.696967 -9.844989 0.264172 1.741036 -17.254376 0.055946 0.808573 -7.916023 -0.000000 -0.000000 -0.000001 -1.218311 2.134036 4.602420 14.644339 21.677776 12.774671 -13.703156 2.222269 11.112030 -0.000000 -0.000002 -0.000000 1.603929 18.309480 12.569052 14.057524 29.476839 53.926440 -0.000000 9.237978 0.000002 -22.399001 0.422751 5.145742 -1.910638 -0.352298 0.422265 11.959636 -28.372425 -16.362668 -15.866244 -2.952480 -12.449945 0.000001 -0.000002 -0.000001 0.609475 -0.722941 8.131781 0.185020 -1.300954 16.187268 0.033152 -0.555377 6.833990 0.000003 -0.000001 0.000002 -22.926619 12.082605 16.328552 25.908547 -0.257556 4.453369 -4.945409 1.174873 -9.554660 -4.381894 0.000002 0.000002 0.000000 -0.000001 0.000000 -3.903424 -9.555523 6.313838 13.980709 -9.751492 -3.547131 -9.363078 -5.145216 4.043189 -6.995010 -0.000003 -0.000001 -0.000001 -0.000001 0.000000 
-0.722719 85.824509 1.477632 0.364321 -3.902858 -5.251799 4.012868 1.694902 1.441675 1.808565 0.669502 0.752395 1.786337 0.701052 0.763193 7.217115 0.502665 -1.912306 -12.031786 3.732134 -1.923256 0.000000 -0.000000 0.000000 0.751514 -16.905299 -14.382478 2.106082 -15.384789 -62.434315 -0.000004 -0.217988 0.000004 -32.659318 -2.344681 -3.750045 0.329211 -0.704092 -9.760384 0.264096 1.740788 -17.251864 0.055911 0.808324 -7.913543 -0.000000 -0.000000 -0.000001 -1.280387 2.097862 4.603616 14.736475 21.529871 12.652662 -13.698148 2.183042 11.179558 -0.000001 -0.000002 -0.000001 1.522157 17.733160 12.958605 13.963986 29.204390 54.498397 0.000002 8.860713 -0.000000 -22.596933 0.620312 5.245653 -1.844528 -0.791468 1.465985 12.056376 -28.563233 -16.332241 -15.899704 -2.884034 -12.420843 0.000002 -0.000002 -0.000002 0.625644 -0.824620 8.475110 0.184816 -1.300275 16.178553 0.033077 -0.554669 6.825278 0.000001 -0.000001 -0.000001 -21.558206 12.354432 15.858598 25.093379 0.122960 4.447865 -4.944957 1.183038 -9.592048 -4.431656 0.000000 0.000003 0.000000 -0.000001 0.000000 -3.158576 -9.707687 5.805176 13.746183 -9.757807 -3.442314 -9.468888 -4.581839 4.088745 -7.026444 -0.000000 0.000000 -0.000001 0.000000 0.000000 
-0.704263 85.936348 1.554267 -0.144111 -4.230763 -4.962586 3.897877 1.684498 1.527668 1.685479 0.644263 0.839809 1.663107 0.674390 0.850347 7.321862 0.513494 -1.827893 -11.010249 3.947885 -2.175254 0.000000 -0.000000 -0.000000 0.772175 -16.815909 -14.233364 2.523020 -15.178519 -63.195711 -0.000002 -0.213011 0.000005 -32.813083 -2.289222 -4.406233 0.331576 -0.720067 -9.602794 0.264135 1.740915 -17.253200 0.055929 0.808458 -7.914836 0.000000 -0.000000 -0.000000 -1.302947 2.076972 4.581857 14.762873 21.380727 12.562146 -13.652231 2.139538 11.265383 -0.000000 0.000001 0.000002 1.438667 17.152538 13.378773 13.276363 28.427492 55.691013 -0.000003 8.309608 -0.000008 -23.390321 1.179318 5.578007 -1.817187 -0.988070 2.055384 12.161512 -28.769710 -16.298995 -15.917189 -2.809086 -12.390718 -0.000000 -0.000002 -0.000001 0.640909 -0.921295 8.871842 0.184089 -1.297748 16.146332 0.032762 -0.552063 6.793053 0.000003 -0.000000 -0.000000 -20.302109 12.609841 15.433682 24.297558 0.486727 4.439184 -4.860290 1.185271 -9.632717 -4.492082 -0.000001 -0.000001 0.000000 0.000000 0.000000 -2.469092 -9.827506 5.329219 13.435371 -9.772169 -3.318346 -9.476544 -4.017194 4.117151 -7.058096 0.000006 0.000002 -0.000000 0.000001 0.000000 
